<?xml version="1.0"?>
<svg xmlns="http://www.w3.org/2000/svg" xmlns:xlink="http://www.w3.org/1999/xlink" xmlns:svgjs="http://svgjs.com/svgjs" version="1.1" width="512" height="512" x="0" y="0" viewBox="0 0 512 512" style="enable-background:new 0 0 512 512" xml:space="preserve" class=""><g>
<circle xmlns="http://www.w3.org/2000/svg" style="" cx="256" cy="256" r="256" fill="#eb4e70" data-original="#ff0037" class=""/>
<path xmlns="http://www.w3.org/2000/svg" style="" d="M512,256c0-14.383-1.206-28.482-3.485-42.218l-118.15-118.15l-289.608,124.09v192.24l92.208,92.208  C213.131,509.277,234.247,512,256,512C397.385,512,512,397.385,512,256z" fill="#b13853" data-original="#d30f0f" class=""/>
<rect xmlns="http://www.w3.org/2000/svg" x="100.76" y="219.72" style="" width="310.48" height="192.24" fill="#414952" data-original="#414952" class=""/>
<rect xmlns="http://www.w3.org/2000/svg" x="255.76" y="219.72" style="" width="155.48" height="192.24" fill="#23272b" data-original="#23272b" class=""/>
<rect xmlns="http://www.w3.org/2000/svg" x="100.76" y="219.72" style="" width="310.48" height="53.57" fill="#ffffff" data-original="#ffffff" class=""/>
<rect xmlns="http://www.w3.org/2000/svg" x="255.76" y="219.72" style="" width="155.48" height="53.57" fill="#f7f7f7" data-original="#f7f7f7" class=""/>
<polygon xmlns="http://www.w3.org/2000/svg" style="" points="259,273.295 230.333,273.295 253,219.722 281.667,219.722 " fill="#707789" data-original="#707789" class=""/>
<polygon xmlns="http://www.w3.org/2000/svg" style="" points="281.667,219.722 255.762,219.722 255.762,273.295 259,273.295 " fill="#636978" data-original="#636978" class=""/>
<g xmlns="http://www.w3.org/2000/svg">
	<polygon style="" points="194.212,273.295 165.546,273.295 188.212,219.722 216.879,219.722  " fill="#707789" data-original="#707789" class=""/>
	<polygon style="" points="129.424,273.295 100.758,273.295 123.424,219.722 152.091,219.722  " fill="#707789" data-original="#707789" class=""/>
</g>
<g xmlns="http://www.w3.org/2000/svg">
	<polygon style="" points="323.788,273.295 295.121,273.295 317.788,219.722 346.454,219.722  " fill="#636978" data-original="#636978" class=""/>
	<polygon style="" points="388.576,273.295 359.909,273.295 382.576,219.722 411.242,219.722  " fill="#636978" data-original="#636978" class=""/>
</g>
<rect xmlns="http://www.w3.org/2000/svg" x="90.321" y="130.899" transform="matrix(0.9728 -0.2318 0.2318 0.9728 -29.8623 61.2149)" style="" width="310.491" height="53.572" fill="#ffffff" data-original="#ffffff" class=""/>
<polygon xmlns="http://www.w3.org/2000/svg" style="" points="390.365,95.632 255.762,127.71 255.762,182.782 402.784,147.745 " fill="#f7f7f7" data-original="#f7f7f7" class=""/>
<polygon xmlns="http://www.w3.org/2000/svg" style="" points="254.689,183.037 226.804,189.683 236.434,132.316 264.32,125.67 " fill="#707789" data-original="#707789" class=""/>
<polygon xmlns="http://www.w3.org/2000/svg" style="" points="255.762,127.71 255.762,176.648 264.32,125.67 " fill="#636978" data-original="#636978" class=""/>
<g xmlns="http://www.w3.org/2000/svg">
	<polygon style="" points="191.667,198.056 163.781,204.702 173.411,147.335 201.297,140.689  " fill="#707789" data-original="#707789" class=""/>
	<polygon style="" points="128.644,213.076 100.758,219.721 110.389,162.354 138.274,155.708  " fill="#707789" data-original="#707789" class=""/>
</g>
<g xmlns="http://www.w3.org/2000/svg">
	<polygon style="" points="317.712,168.018 289.826,174.664 299.457,117.297 327.343,110.651  " fill="#636978" data-original="#636978" class=""/>
	<polygon style="" points="380.735,152.999 352.849,159.645 362.48,102.278 390.365,95.632  " fill="#636978" data-original="#636978" class=""/>
</g>
<g xmlns="http://www.w3.org/2000/svg">
</g>
<g xmlns="http://www.w3.org/2000/svg">
</g>
<g xmlns="http://www.w3.org/2000/svg">
</g>
<g xmlns="http://www.w3.org/2000/svg">
</g>
<g xmlns="http://www.w3.org/2000/svg">
</g>
<g xmlns="http://www.w3.org/2000/svg">
</g>
<g xmlns="http://www.w3.org/2000/svg">
</g>
<g xmlns="http://www.w3.org/2000/svg">
</g>
<g xmlns="http://www.w3.org/2000/svg">
</g>
<g xmlns="http://www.w3.org/2000/svg">
</g>
<g xmlns="http://www.w3.org/2000/svg">
</g>
<g xmlns="http://www.w3.org/2000/svg">
</g>
<g xmlns="http://www.w3.org/2000/svg">
</g>
<g xmlns="http://www.w3.org/2000/svg">
</g>
<g xmlns="http://www.w3.org/2000/svg">
</g>
</g></svg>
